Coordinates
version=1
nRows=7
nColumns=40
inDegrees=yes

Units are S.I. units (second, meters, Newtons, ...)
Angles are in degrees.

endheader
time	pelvis_tilt	pelvis_list	pelvis_rotation	pelvis_tx	pelvis_ty	pelvis_tz	hip_flexion_r	hip_adduction_r	hip_rotation_r	knee_angle_r	knee_angle_r_beta	ankle_angle_r	subtalar_angle_r	mtp_angle_r	hip_flexion_l	hip_adduction_l	hip_rotation_l	knee_angle_l	knee_angle_l_beta	ankle_angle_l	subtalar_angle_l	mtp_angle_l	lumbar_extension	lumbar_bending	lumbar_rotation	arm_flex_r	arm_add_r	arm_rot_r	elbow_flex_r	pro_sup_r	wrist_flex_r	wrist_dev_r	arm_flex_l	arm_add_l	arm_rot_l	elbow_flex_l	pro_sup_l	wrist_flex_l	wrist_dev_l
      9.29314286	     -5.68403955	     -4.03404637	     13.66336176	      0.94158043	      0.91822857	      0.50470326	      4.76418692	      4.76508105	    -18.99217386	     16.21097332	     16.21097332	     18.24518033	     -8.78849291	     -0.65028162	     29.64152638	     -6.46114524	      2.81653196	     16.38702804	     16.38702804	      5.71050599	      4.19460754	      5.49298577	     -8.04096741	      2.99500278	      3.50771971	     61.98094160	    -19.90466766	     -3.09523349	     86.34166638	     44.74932562	      0.00000000	      0.00000000	    -18.34105968	    -10.62884754	     24.57290464	     32.07356290	     43.84505072	      0.00000000	      0.00000000
      9.31628571	     -5.71525571	     -4.20497371	     13.81505853	      0.94272168	      0.91744144	      0.50094266	      4.36977204	      4.77250839	    -19.12863838	     16.19966020	     16.19966020	     18.41184458	     -8.72016421	     -0.77112890	     29.47586338	     -6.25374022	      2.96132866	     16.43012256	     16.43012256	      4.00748771	      3.91832789	      1.38265515	     -7.91534233	      3.00188080	      3.83172513	     61.84651967	    -20.00722297	     -3.40949968	     87.17930865	     44.77691878	      0.00000000	      0.00000000	    -17.80718666	    -10.74112835	     24.42598598	     31.65973293	     43.98697249	      0.00000000	      0.00000000
      9.33942857	     -5.76595809	     -4.24875437	     13.89424852	      0.94402570	      0.91706930	      0.49704315	      3.97025156	      4.63668645	    -19.15348918	     16.21723182	     16.21723182	     18.54026760	     -8.75188478	     -0.78769892	     29.39734214	     -5.99445892	      3.08959793	     16.98863637	     16.98863637	      3.80477794	      3.79329814	      1.21946138	     -7.79867440	      2.86657293	      3.87643467	     61.78044614	    -19.76157767	     -3.31092275	     87.23394903	     44.77296423	      0.00000000	      0.00000000	    -17.44008194	    -11.00609278	     24.36098065	     31.69397073	     44.00316751	      0.00000000	      0.00000000
      9.36257143	     -5.71033059	     -4.43564393	     13.84802627	      0.94562992	      0.91659193	      0.49301989	      3.52088221	      4.59267297	    -19.37041761	     16.36935897	     16.36935897	     18.73115122	     -8.25049168	     -0.76213419	     29.43227959	     -5.88009542	      3.72418085	     17.99505368	     17.99505368	      2.67396270	      2.34713948	     -2.17183170	     -7.79950015	      2.89840639	      4.01284550	     61.53346664	    -19.59623200	     -3.50647389	     87.96699170	     44.79521754	      0.00000000	      0.00000000	    -16.98726161	    -11.19212508	     24.11748618	     31.55749495	     44.13939744	      0.00000000	      0.00000000
      9.38571429	     -5.66882346	     -4.55263811	     13.72185882	      0.94742776	      0.91647931	      0.48886904	      3.02647276	      4.51438822	    -19.28088188	     16.42065960	     16.42065960	     18.76139670	     -8.13062930	     -0.76108211	     29.49715407	     -5.78151271	      4.08091205	     19.24023343	     19.24023343	      2.80220562	      1.50551828	     -2.53532493	     -7.78399265	      2.85860322	      4.06193372	     61.29367713	    -19.42811327	     -3.41609543	     87.90368246	     44.79857351	      0.00000000	      0.00000000	    -16.62946350	    -11.48396057	     24.02567121	     31.58182890	     44.16790012	      0.00000000	      0.00000000
      9.40885714	     -5.61979725	     -4.62175491	     13.47625351	      0.94939124	      0.91661118	      0.48463377	      2.50306664	      4.36121151	    -19.17147015	     16.47805605	     16.47805605	     18.73176400	     -7.90419476	     -0.76849378	     29.45830475	     -5.67081088	      4.44631823	     20.40800883	     20.40800883	      3.06525803	      0.50264670	     -2.79837548	     -7.80025090	      2.77391385	      4.17867908	     61.00065465	    -19.25171472	     -3.31418704	     87.79593365	     44.80169259	      0.00000000	      0.00000000	    -16.20629655	    -11.80695657	     23.91218408	     31.63610673	     44.19772815	      0.00000000	      0.00000000
      9.43200000	     -5.60817138	     -4.71910720	     13.15789935	      0.95143035	      0.91686899	      0.48021699	      2.00604313	      4.19531797	    -19.10416616	     16.50234564	     16.50234564	     18.63792548	     -7.51262398	     -0.80657886	     29.40722719	     -5.54812709	      4.95323913	     21.49430776	     21.49430776	      3.42928701	     -0.79173153	     -2.83958191	     -7.76312854	      2.76291865	      4.36097146	     60.72868032	    -19.15423989	     -3.21405910	     87.56168857	     44.81051640	      0.00000000	      0.00000000	    -15.71579399	    -12.16262924	     23.75293343	     31.73600292	     44.23807291	      0.00000000	      0.00000000
